<svg width="27" height="30" viewBox="0 0 27 30" fill="none" xmlns="http://www.w3.org/2000/svg">
<path fill-rule="evenodd" clip-rule="evenodd" d="M17.5509 2.9697H23.7576C25.3909 2.9697 26.7273 4.30606 26.7273 5.93939V26.7273C26.7273 28.3606 25.3909 29.697 23.7576 29.697H2.9697C2.76182 29.697 2.56879 29.6821 2.37576 29.6524C1.79667 29.5336 1.27697 29.2367 0.876061 28.8358C0.608788 28.5536 0.386061 28.2418 0.237576 27.8855C0.0890909 27.5291 0 27.1282 0 26.7273V5.93939C0 5.52364 0.0890909 5.13758 0.237576 4.79606C0.386061 4.4397 0.608788 4.11303 0.876061 3.84576C1.27697 3.44485 1.79667 3.14788 2.37576 3.02909C2.56879 2.98455 2.76182 2.9697 2.9697 2.9697H9.17636C9.8 1.24727 11.4333 0 13.3636 0C15.2939 0 16.9273 1.24727 17.5509 2.9697ZM5.93939 8.90909H20.7879V11.8788H5.93939V8.90909ZM20.7879 14.8485H5.93939V17.8182H20.7879V14.8485ZM16.3333 20.7879H5.93939V23.7576H16.3333V20.7879ZM13.3636 2.59848C13.9724 2.59848 14.4773 3.10333 14.4773 3.71212C14.4773 4.32091 13.9724 4.82576 13.3636 4.82576C12.7548 4.82576 12.25 4.32091 12.25 3.71212C12.25 3.10333 12.7548 2.59848 13.3636 2.59848ZM2.9697 26.7273H23.7576V5.93939H2.9697V26.7273Z" fill="#FFFCFE"/>
</svg>
