<svg width="17" height="17" viewBox="0 0 17 17" fill="none" xmlns="http://www.w3.org/2000/svg">
<path d="M2.23125 3.29375C2.44375 4.675 2.65625 4.99375 2.65625 6.375C2.65625 7.225 1.0625 7.96875 1.0625 7.96875V9.03125C1.0625 9.03125 2.65625 9.775 2.65625 10.625C2.65625 12.0063 2.44375 12.325 2.23125 13.7062C1.9125 15.9375 3.08125 17 4.14375 17C5.20625 17 6.375 17 6.375 17V14.875C6.375 14.875 4.4625 15.0875 4.4625 13.8125C4.4625 12.8562 4.675 12.8563 4.8875 10.7313C4.99375 9.775 4.35625 9.03125 3.71875 8.5C4.35625 7.96875 4.99375 7.33125 4.8875 6.375C4.56875 4.25 4.4625 4.25 4.4625 3.29375C4.4625 2.01875 6.375 2.125 6.375 2.125V0C6.375 0 5.3125 0 4.14375 0C2.975 0 1.9125 1.0625 2.23125 3.29375Z" fill="#008DF3"/>
<path d="M14.7687 3.29375C14.5562 4.675 14.3438 4.99375 14.3438 6.375C14.3438 7.225 15.9375 7.96875 15.9375 7.96875V9.03125C15.9375 9.03125 14.3438 9.775 14.3438 10.625C14.3438 12.0062 14.5562 12.325 14.7687 13.7062C15.0875 15.9375 13.9188 17 12.8563 17C11.7938 17 10.625 17 10.625 17V14.875C10.625 14.875 12.5375 15.0875 12.5375 13.8125C12.5375 12.8562 12.325 12.8562 12.1125 10.7312C12.0062 9.775 12.6437 9.03125 13.2812 8.5C12.6437 7.96875 12.0062 7.33125 12.1125 6.375C12.325 4.25 12.5375 4.25 12.5375 3.29375C12.5375 2.01875 10.625 2.125 10.625 2.125V0C10.625 0 11.6875 0 12.8563 0C14.025 0 15.0875 1.0625 14.7687 3.29375Z" fill="#008DF3"/>
</svg>
