<svg width="34" height="32" viewBox="0 0 34 32" fill="none" xmlns="http://www.w3.org/2000/svg">
<path d="M30.6 0H3.4C1.53 0 0 1.44 0 3.2V28.8C0 30.56 1.53 32 3.4 32H30.6C32.47 32 34 30.56 34 28.8V3.2C34 1.44 32.47 0 30.6 0ZM10.2 27.2H5.1V12.8H10.2V27.2ZM7.65 10.08C5.95 10.08 4.59 8.8 4.59 7.2C4.59 5.6 5.95 4.32 7.65 4.32C9.35 4.32 10.71 5.6 10.71 7.2C10.71 8.8 9.35 10.08 7.65 10.08ZM28.9 27.2H23.8V18.72C23.8 17.4401 22.61 16.32 21.25 16.32C19.89 16.32 18.7 17.4401 18.7 18.72V27.2H13.6V12.8H18.7V14.72C19.55 13.44 21.42 12.48 22.95 12.48C26.18 12.48 28.9 15.04 28.9 18.08V27.2Z" fill="white"/>
</svg>
