<svg width="21" height="30" viewBox="0 0 21 30" fill="none" xmlns="http://www.w3.org/2000/svg">
<path fill-rule="evenodd" clip-rule="evenodd" d="M10.5 0C4.695 0 0 4.695 0 10.5C0 18.375 10.5 30 10.5 30C10.5 30 21 18.375 21 10.5C21 4.695 16.305 0 10.5 0ZM3.00001 10.5C3.00001 6.36001 6.36001 3.00001 10.5 3.00001C14.64 3.00001 18 6.36001 18 10.5C18 14.82 13.68 21.285 10.5 25.32C7.38001 21.315 3.00001 14.775 3.00001 10.5ZM6.74998 10.5C6.74998 8.42894 8.42891 6.75 10.5 6.75C11.8397 6.75 13.0777 7.46475 13.7476 8.625C14.4174 9.78526 14.4174 11.2147 13.7476 12.375C13.0777 13.5353 11.8397 14.25 10.5 14.25C8.42891 14.25 6.74998 12.5711 6.74998 10.5Z" fill="white"/>
</svg>
